<svg width="96" height="96" viewBox="0 0 96 96" fill="none" xmlns="http://www.w3.org/2000/svg" xmlns:xlink="http://www.w3.org/1999/xlink">
<circle cx="48" cy="48" r="47.5" fill="url(#pattern0_31_209)" stroke="#4FFCFA"/>
<defs>
<pattern id="pattern0_31_209" patternUnits="userSpaceOnUse" patternTransform="matrix(129.483 0 0 251.999 -33.4839 0)" preserveAspectRatio="none" viewBox="-0.000452548 0 129.483 251.999" width="1" height="1">
<use xlink:href="#pattern0_31_209_inner" transform="translate(-194.225 -126)"/>
<use xlink:href="#pattern0_31_209_inner" transform="translate(-64.7417 -126)"/>
<use xlink:href="#pattern0_31_209_inner" transform="translate(64.7417 -126)"/>
<use xlink:href="#pattern0_31_209_inner" transform="translate(-258.967 0)"/>
<use xlink:href="#pattern0_31_209_inner" transform="translate(-129.483 0)"/>
<g id="pattern0_31_209_inner">
<g clip-path="url(#clip0_31_209)">
<path d="M35.3756 129.474C53.7554 140.252 79.1867 131.031 92.1778 108.878C105.169 86.7251 100.801 60.0288 82.4208 49.2504C64.0409 38.472 38.6097 47.693 25.6186 69.8461C12.6274 91.9992 16.9958 118.695 35.3756 129.474Z" fill="white"/>
<path d="M99.9214 82.0536L107.369 75.0548L105.001 65.0973L95.1844 62.1388L87.7366 69.1377L90.105 79.0952L99.9214 82.0536Z" fill="white"/>
<path d="M52.915 57.3603L62.8247 54.7963L65.5278 44.9404L58.321 37.6486L48.4113 40.2125L45.7082 50.0685L52.915 57.3603Z" fill="white"/>
<path d="M25.1825 78.4148C34.4096 76.0273 41.3035 71.8602 40.5805 69.1072C39.8574 66.3543 31.7912 66.058 22.5641 68.4456C13.337 70.8331 6.44311 75.0003 7.16614 77.7532C7.88918 80.5061 15.9554 80.8024 25.1825 78.4148Z" fill="white"/>
<path d="M89.4256 116.09C98.6527 113.702 105.547 109.535 104.824 106.782C104.101 104.029 96.0344 103.733 86.8073 106.12C77.5802 108.508 70.6863 112.675 71.4093 115.428C72.1323 118.181 80.1985 118.477 89.4256 116.09Z" fill="white"/>
<path d="M88.3115 88.8173C86.4541 91.1278 84.1562 92.1062 83.4496 92.3824C82.8984 92.5978 81.2253 93.2029 78.9716 93.1805C77.7986 93.1687 75.3473 92.9759 72.8988 91.5264C71.254 90.553 71.433 90.0521 68.1129 86.8231C66.2172 84.9795 65.2694 84.0578 63.9403 83.1803C61.5906 81.6288 59.3101 80.8705 58.02 80.4506C55.9556 79.7786 55.5933 79.9099 53.5551 79.1811C52.2257 78.7058 50.7305 78.1712 49.3357 77.2216C47.1577 75.7393 44.6926 72.8838 44.2352 69.0241C43.8998 66.1951 44.7853 64.024 45.1506 63.1583C46.6635 59.5743 49.4393 57.8249 50.2378 57.3371C51.7652 56.4042 53.0709 56.0597 54.8228 55.5883C57.8261 54.78 60.2713 54.7356 61.2995 54.7457C64.4515 54.7767 66.7878 55.4404 68.2409 55.8646C72.3437 57.062 75.1111 58.819 78.1496 60.7806C81.0593 62.6589 83.1973 64.0391 85.4937 66.6409C86.5807 67.8725 88.3119 69.8694 89.5502 73.0038C90.6855 75.878 90.8422 78.2733 90.8739 78.8894C90.9801 80.9399 91.2032 85.2203 88.3115 88.8173Z" fill="#003C68"/>
<path d="M82.0515 80.1781C83.5787 77.6808 83.3943 74.7867 81.6396 73.714C79.885 72.6414 77.2245 73.7963 75.6974 76.2936C74.1702 78.7909 74.3546 81.685 76.1092 82.7577C77.8639 83.8304 80.5243 82.6755 82.0515 80.1781Z" fill="#4FFCFA"/>
<path d="M62.3328 68.1215C63.8599 65.6242 63.6755 62.7301 61.9209 61.6574C60.1662 60.5847 57.5058 61.7396 55.9786 64.237C54.4514 66.7343 54.6358 69.6284 56.3905 70.7011C58.1452 71.7737 60.8056 70.6188 62.3328 68.1215Z" fill="#4FFCFA"/>
</g>
</g>
<use xlink:href="#pattern0_31_209_inner" transform="translate(-194.225 126)"/>
<use xlink:href="#pattern0_31_209_inner" transform="translate(-64.7417 126)"/>
<use xlink:href="#pattern0_31_209_inner" transform="translate(64.7417 126)"/>
</pattern><clipPath id="clip0_31_209">
<rect width="100" height="93" fill="white" transform="translate(38.4117) rotate(24.3952)"/>
</clipPath>
</defs>
</svg>
